<?xml version="1.0" encoding="UTF-8"?><svg xmlns="http://www.w3.org/2000/svg" viewBox="0 0 36.45 23.52"><defs><style>.d{fill:#175ce5;}</style></defs><g id="a"/><g id="b"><g id="c"><g><path class="d" d="M16.58,19.87v3.65H0v-1.28c0-1.47,.26-2.69,.77-3.66,.51-.97,1.34-1.88,2.5-2.74,.47-.34,.99-.68,1.55-1.01,.56-.33,1.12-.63,1.68-.91,1.43-.75,2.52-1.4,3.26-1.95,1.02-.75,1.75-1.48,2.19-2.21,.44-.73,.66-1.49,.66-2.3s-.19-1.47-.58-2.05c-.38-.58-.9-1.01-1.54-1.31-.64-.3-1.35-.45-2.14-.45-1,0-1.86,.24-2.58,.72-.71,.48-1.21,1.14-1.47,1.98s-.28,1.81-.05,2.9L.22,8.58c-.19-1.71,.03-3.21,.66-4.5,.63-1.29,1.59-2.29,2.88-3.01,1.29-.71,2.83-1.07,4.62-1.07,1.6,0,3.02,.3,4.26,.9,1.24,.6,2.2,1.46,2.88,2.58,.68,1.12,1.02,2.44,1.02,3.95s-.32,2.75-.96,3.89c-.64,1.14-1.52,2.16-2.62,3.06-.51,.41-1.05,.77-1.62,1.09s-1.27,.69-2.13,1.12c-.38,.21-.77,.42-1.15,.62s-.75,.41-1.09,.62c-.81,.51-1.39,.99-1.74,1.44-.35,.45-.53,.96-.53,1.54l-2.85-.93h14.72Z"/><path class="d" d="M36.45,19.87v3.65H19.87v-1.28c0-1.47,.26-2.69,.77-3.66,.51-.97,1.34-1.88,2.5-2.74,.47-.34,.99-.68,1.55-1.01,.56-.33,1.12-.63,1.68-.91,1.43-.75,2.52-1.4,3.26-1.95,1.02-.75,1.75-1.48,2.19-2.21,.44-.73,.66-1.49,.66-2.3s-.19-1.47-.58-2.05c-.38-.58-.9-1.01-1.54-1.31-.64-.3-1.35-.45-2.14-.45-1,0-1.86,.24-2.58,.72-.71,.48-1.21,1.14-1.47,1.98s-.28,1.81-.05,2.9l-4.03-.67c-.19-1.71,.03-3.21,.66-4.5,.63-1.29,1.59-2.29,2.88-3.01,1.29-.71,2.83-1.07,4.62-1.07,1.6,0,3.02,.3,4.26,.9,1.24,.6,2.2,1.46,2.88,2.58,.68,1.12,1.02,2.44,1.02,3.95s-.32,2.75-.96,3.89c-.64,1.14-1.52,2.16-2.62,3.06-.51,.41-1.05,.77-1.62,1.09s-1.27,.69-2.13,1.12c-.38,.21-.77,.42-1.15,.62s-.75,.41-1.09,.62c-.81,.51-1.39,.99-1.74,1.44-.35,.45-.53,.96-.53,1.54l-2.85-.93h14.72Z"/></g></g></g></svg>